<svg width="1313" height="973" viewBox="0 0 1313 973" fill="none" xmlns="http://www.w3.org/2000/svg">
<g filter="url(#filter0_d_64_14)">
<rect x="8" y="4" width="1297" height="698" rx="8" fill="#084035" stroke="black" stroke-width="8"/>
<mask id="path-2-inside-1_64_14" fill="white">
<rect x="4" y="765" width="276.058" height="100" rx="3"/>
</mask>
<rect x="4" y="765" width="276.058" height="100" rx="3" fill="#2959D5" stroke="black" stroke-width="16" mask="url(#path-2-inside-1_64_14)"/>
<mask id="path-3-inside-2_64_14" fill="white">
<rect x="264.999" y="765" width="276.058" height="100" rx="3"/>
</mask>
<rect x="264.999" y="765" width="276.058" height="100" rx="3" fill="#2959D5" stroke="black" stroke-width="16" mask="url(#path-3-inside-2_64_14)"/>
<mask id="path-4-inside-3_64_14" fill="white">
<rect x="526" y="765" width="276.058" height="100" rx="3"/>
</mask>
<rect x="526" y="765" width="276.058" height="100" rx="3" fill="#2959D5" stroke="black" stroke-width="16" mask="url(#path-4-inside-3_64_14)"/>
<mask id="path-5-inside-4_64_14" fill="white">
<rect x="771.942" y="765" width="276.058" height="100" rx="3"/>
</mask>
<rect x="771.942" y="765" width="276.058" height="100" rx="3" fill="#2959D5" stroke="black" stroke-width="16" mask="url(#path-5-inside-4_64_14)"/>
<mask id="path-6-inside-5_64_14" fill="white">
<rect x="4" y="865" width="276.058" height="100" rx="3"/>
</mask>
<rect x="4" y="865" width="276.058" height="100" rx="3" fill="#2959D5" stroke="black" stroke-width="16" mask="url(#path-6-inside-5_64_14)"/>
<mask id="path-7-inside-6_64_14" fill="white">
<rect x="264.999" y="865" width="276.058" height="100" rx="3"/>
</mask>
<rect x="264.999" y="865" width="276.058" height="100" rx="3" fill="#2959D5" stroke="black" stroke-width="16" mask="url(#path-7-inside-6_64_14)"/>
<mask id="path-8-inside-7_64_14" fill="white">
<rect x="526" y="865" width="276.058" height="100" rx="3"/>
</mask>
<rect x="526" y="865" width="276.058" height="100" rx="3" fill="#2959D5" stroke="black" stroke-width="16" mask="url(#path-8-inside-7_64_14)"/>
<mask id="path-9-inside-8_64_14" fill="white">
<rect x="771.942" y="865" width="276.058" height="100" rx="3"/>
</mask>
<rect x="771.942" y="865" width="276.058" height="100" rx="3" fill="#2959D5" stroke="black" stroke-width="16" mask="url(#path-9-inside-8_64_14)"/>
<mask id="path-10-inside-9_64_14" fill="white">
<rect x="1032.94" y="765" width="276.058" height="100" rx="3"/>
</mask>
<rect x="1032.94" y="765" width="276.058" height="100" rx="3" fill="#2959D5" stroke="black" stroke-width="16" mask="url(#path-10-inside-9_64_14)"/>
<mask id="path-11-inside-10_64_14" fill="white">
<rect x="1032.94" y="865" width="276.058" height="100" rx="3"/>
</mask>
<rect x="1032.94" y="865" width="276.058" height="100" rx="3" fill="#2959D5" stroke="black" stroke-width="16" mask="url(#path-11-inside-10_64_14)"/>
</g>
<defs>
<filter id="filter0_d_64_14" x="0" y="0" width="1313" height="973" filterUnits="userSpaceOnUse" color-interpolation-filters="sRGB">
<feFlood flood-opacity="0" result="BackgroundImageFix"/>
<feColorMatrix in="SourceAlpha" type="matrix" values="0 0 0 0 0 0 0 0 0 0 0 0 0 0 0 0 0 0 127 0" result="hardAlpha"/>
<feOffset dy="4"/>
<feGaussianBlur stdDeviation="2"/>
<feComposite in2="hardAlpha" operator="out"/>
<feColorMatrix type="matrix" values="0 0 0 0 0 0 0 0 0 0 0 0 0 0 0 0 0 0 0.25 0"/>
<feBlend mode="normal" in2="BackgroundImageFix" result="effect1_dropShadow_64_14"/>
<feBlend mode="normal" in="SourceGraphic" in2="effect1_dropShadow_64_14" result="shape"/>
</filter>
</defs>
</svg>
